name p1_grf_mean_speed_1.6
datacolumns 13
datarows 63
range 0.0000000000 0.6200000000
endheader
time	grf_x_l_mean	grf_x_l_var	grf_y_l_mean	grf_y_l_var	grf_z_l_mean	grf_z_l_var	grf_x_r_mean	grf_x_r_var	grf_y_r_mean	grf_y_r_var	grf_z_r_mean	grf_z_r_var
0.0000000000	152.7329479436	1.0000000000	718.1230440113	1.0000000000	0.0000000000	0.0000000000	6.4906194694	1.0000000000	11.4607040551	1.0000000000	0.0000000000	0.0000000000
0.0100000000	164.2048546200	1.0000000000	697.7938396162	1.0000000000	0.0000000000	0.0000000000	6.9597111384	1.0000000000	53.2748995640	1.0000000000	0.0000000000	0.0000000000
0.0200000000	174.1731448841	1.0000000000	666.5457153721	1.0000000000	0.0000000000	0.0000000000	3.3065305825	1.0000000000	122.7190142657	1.0000000000	0.0000000000	0.0000000000
0.0300000000	181.4852502406	1.0000000000	623.3492754936	1.0000000000	0.0000000000	0.0000000000	-9.2240285485	1.0000000000	217.6086062839	1.0000000000	0.0000000000	0.0000000000
0.0400000000	184.2855573548	1.0000000000	567.4529736507	1.0000000000	0.0000000000	0.0000000000	-34.9298207216	1.0000000000	326.8607669020	1.0000000000	0.0000000000	0.0000000000
0.0500000000	180.5553590344	1.0000000000	498.9799930287	1.0000000000	0.0000000000	0.0000000000	-71.3491188894	1.0000000000	436.2256260693	1.0000000000	0.0000000000	0.0000000000
0.0600000000	169.1516966506	1.0000000000	420.0383535413	1.0000000000	0.0000000000	0.0000000000	-110.0976814874	1.0000000000	535.8956313226	1.0000000000	0.0000000000	0.0000000000
0.0700000000	149.4973325685	1.0000000000	335.0857115940	1.0000000000	0.0000000000	0.0000000000	-144.2982093183	1.0000000000	621.7804420293	1.0000000000	0.0000000000	0.0000000000
0.0800000000	122.7171685373	1.0000000000	249.8404363771	1.0000000000	0.0000000000	0.0000000000	-171.7470690563	1.0000000000	692.4883538373	1.0000000000	0.0000000000	0.0000000000
0.0900000000	91.8112554285	1.0000000000	170.4696963520	1.0000000000	0.0000000000	0.0000000000	-190.7549715029	1.0000000000	748.0653202295	1.0000000000	0.0000000000	0.0000000000
0.1000000000	61.0456091440	1.0000000000	103.0822831779	1.0000000000	0.0000000000	0.0000000000	-200.2355015650	1.0000000000	789.4579565943	1.0000000000	0.0000000000	0.0000000000
0.1100000000	34.3374252563	1.0000000000	52.0765392763	1.0000000000	0.0000000000	0.0000000000	-200.8111713412	1.0000000000	817.9745815044	1.0000000000	0.0000000000	0.0000000000
0.1200000000	14.8275177253	1.0000000000	18.6379007807	1.0000000000	0.0000000000	0.0000000000	-194.2029716133	1.0000000000	835.2453905158	1.0000000000	0.0000000000	0.0000000000
0.1300000000	3.1150470266	1.0000000000	0.4995139735	1.0000000000	0.0000000000	0.0000000000	-181.7624394948	1.0000000000	842.6193621324	1.0000000000	0.0000000000	0.0000000000
0.1400000000	0.0000000000	1.0000000000	0.0000000000	1.0000000000	0.0000000000	0.0000000000	-165.4551962749	1.0000000000	840.6776560592	1.0000000000	0.0000000000	0.0000000000
0.1500000000	0.0000000000	1.0000000000	0.0000000000	1.0000000000	0.0000000000	0.0000000000	-147.3494202862	1.0000000000	829.3499594089	1.0000000000	0.0000000000	0.0000000000
0.1600000000	0.0000000000	1.0000000000	0.0000000000	1.0000000000	0.0000000000	0.0000000000	-128.6767646282	1.0000000000	809.0526780577	1.0000000000	0.0000000000	0.0000000000
0.1700000000	0.0000000000	1.0000000000	0.0000000000	1.0000000000	0.0000000000	0.0000000000	-110.2451758701	1.0000000000	781.2961377006	1.0000000000	0.0000000000	0.0000000000
0.1800000000	0.0000000000	1.0000000000	0.0000000000	1.0000000000	0.0000000000	0.0000000000	-92.7981417679	1.0000000000	747.5752754987	1.0000000000	0.0000000000	0.0000000000
0.1900000000	0.0000000000	1.0000000000	0.0000000000	1.0000000000	0.0000000000	0.0000000000	-76.3539970560	1.0000000000	708.6766428610	1.0000000000	0.0000000000	0.0000000000
0.2000000000	-0.2428714680	1.0000000000	0.0746859054	1.0000000000	0.0000000000	0.0000000000	-61.0284748744	1.0000000000	665.5757140147	1.0000000000	0.0000000000	0.0000000000
0.2100000000	-0.0629576840	1.0000000000	0.3078141057	1.0000000000	0.0000000000	0.0000000000	-47.2322767478	1.0000000000	620.4259796110	1.0000000000	0.0000000000	0.0000000000
0.2200000000	0.0649210226	1.0000000000	0.3369887178	1.0000000000	0.0000000000	0.0000000000	-35.1889693822	1.0000000000	576.1523394785	1.0000000000	0.0000000000	0.0000000000
0.2300000000	0.1792352033	1.0000000000	0.2884046906	1.0000000000	0.0000000000	0.0000000000	-25.0176869679	1.0000000000	535.1180894952	1.0000000000	0.0000000000	0.0000000000
0.2400000000	0.1842999752	1.0000000000	0.1988127486	1.0000000000	0.0000000000	0.0000000000	-16.7771702065	1.0000000000	498.5190950351	1.0000000000	0.0000000000	0.0000000000
0.2500000000	0.1102480790	1.0000000000	0.1088427948	1.0000000000	0.0000000000	0.0000000000	-10.4189780312	1.0000000000	467.2539235594	1.0000000000	0.0000000000	0.0000000000
0.2600000000	0.0144010295	1.0000000000	0.0410468043	1.0000000000	0.0000000000	0.0000000000	-5.5726701552	1.0000000000	442.5900684763	1.0000000000	0.0000000000	0.0000000000
0.2700000000	0.0000000000	1.0000000000	0.0000000000	1.0000000000	0.0000000000	0.0000000000	-1.9533901372	1.0000000000	425.2943616274	1.0000000000	0.0000000000	0.0000000000
0.2800000000	0.0000000000	1.0000000000	0.0000000000	1.0000000000	0.0000000000	0.0000000000	0.8034963622	1.0000000000	414.9878187333	1.0000000000	0.0000000000	0.0000000000
0.2900000000	0.0000000000	1.0000000000	0.0000000000	1.0000000000	0.0000000000	0.0000000000	3.1058901069	1.0000000000	410.8298524126	1.0000000000	0.0000000000	0.0000000000
0.3000000000	0.0000000000	1.0000000000	0.0000000000	1.0000000000	0.0000000000	0.0000000000	5.3968628712	1.0000000000	412.2520015135	1.0000000000	0.0000000000	0.0000000000
0.3100000000	0.0000000000	1.0000000000	0.0000000000	1.0000000000	0.0000000000	0.0000000000	7.9882566624	1.0000000000	418.9409762729	1.0000000000	0.0000000000	0.0000000000
0.3200000000	0.0000000000	1.0000000000	0.0000000000	1.0000000000	0.0000000000	0.0000000000	11.0792213359	1.0000000000	430.4687548325	1.0000000000	0.0000000000	0.0000000000
0.3300000000	0.0000000000	1.0000000000	0.0000000000	1.0000000000	0.0000000000	0.0000000000	14.8557782914	1.0000000000	446.0059720672	1.0000000000	0.0000000000	0.0000000000
0.3400000000	0.0000000000	1.0000000000	0.0000000000	1.0000000000	0.0000000000	0.0000000000	19.5921302569	1.0000000000	464.5317141978	1.0000000000	0.0000000000	0.0000000000
0.3500000000	0.0000000000	1.0000000000	0.0000000000	1.0000000000	0.0000000000	0.0000000000	25.3140812595	1.0000000000	485.4847946972	1.0000000000	0.0000000000	0.0000000000
0.3600000000	-0.1056243049	1.0000000000	0.0155599128	1.0000000000	0.0000000000	0.0000000000	31.8211095223	1.0000000000	508.7119503327	1.0000000000	0.0000000000	0.0000000000
0.3700000000	-0.1291339681	1.0000000000	0.1193423405	1.0000000000	0.0000000000	0.0000000000	38.9572611147	1.0000000000	533.7269055472	1.0000000000	0.0000000000	0.0000000000
0.3800000000	-0.1772125114	1.0000000000	0.2737349588	1.0000000000	0.0000000000	0.0000000000	46.6071486835	1.0000000000	559.6211946864	1.0000000000	0.0000000000	0.0000000000
0.3900000000	-0.2431344006	1.0000000000	0.4443175542	1.0000000000	0.0000000000	0.0000000000	54.6687918379	1.0000000000	585.6970380300	1.0000000000	0.0000000000	0.0000000000
0.4000000000	-0.3096244057	1.0000000000	0.5665891453	1.0000000000	0.0000000000	0.0000000000	63.2131461830	1.0000000000	611.6711526244	1.0000000000	0.0000000000	0.0000000000
0.4100000000	-0.3319801477	1.0000000000	0.4945648615	1.0000000000	0.0000000000	0.0000000000	72.4110450682	1.0000000000	637.2173648704	1.0000000000	0.0000000000	0.0000000000
0.4200000000	0.0000000000	1.0000000000	0.0000000000	1.0000000000	0.0000000000	0.0000000000	82.3832358551	1.0000000000	661.6397856879	1.0000000000	0.0000000000	0.0000000000
0.4300000000	0.0000000000	1.0000000000	0.0000000000	1.0000000000	0.0000000000	0.0000000000	93.2516017633	1.0000000000	683.9519652392	1.0000000000	0.0000000000	0.0000000000
0.4400000000	0.0000000000	1.0000000000	0.0000000000	1.0000000000	0.0000000000	0.0000000000	104.9620989436	1.0000000000	703.1402476244	1.0000000000	0.0000000000	0.0000000000
0.4500000000	0.0000000000	1.0000000000	0.0000000000	1.0000000000	0.0000000000	0.0000000000	117.1216829542	1.0000000000	718.4297660588	1.0000000000	0.0000000000	0.0000000000
0.4600000000	0.0000000000	1.0000000000	0.0000000000	1.0000000000	0.0000000000	0.0000000000	129.3241557594	1.0000000000	729.1596934051	1.0000000000	0.0000000000	0.0000000000
0.4700000000	0.0000000000	1.0000000000	0.0000000000	1.0000000000	0.0000000000	0.0000000000	141.3033485736	1.0000000000	734.3909225849	1.0000000000	0.0000000000	0.0000000000
0.4800000000	0.0000000000	1.0000000000	0.0000000000	1.0000000000	0.0000000000	0.0000000000	152.7312546037	1.0000000000	732.9399580123	1.0000000000	0.0000000000	0.0000000000
0.4900000000	2.0820954158	1.0000000000	6.3015277835	1.0000000000	0.0000000000	0.0000000000	163.2964753377	1.0000000000	723.8197524986	1.0000000000	0.0000000000	0.0000000000
0.5000000000	0.5658347357	1.0000000000	39.3980215324	1.0000000000	0.0000000000	0.0000000000	172.7345251462	1.0000000000	706.2368888163	1.0000000000	0.0000000000	0.0000000000
0.5100000000	-3.8578772895	1.0000000000	96.3344329894	1.0000000000	0.0000000000	0.0000000000	180.5360653610	1.0000000000	679.1125721217	1.0000000000	0.0000000000	0.0000000000
0.5200000000	-13.7079373142	1.0000000000	176.9528182253	1.0000000000	0.0000000000	0.0000000000	185.9201642289	1.0000000000	641.0300697104	1.0000000000	0.0000000000	0.0000000000
0.5300000000	-32.3106077169	1.0000000000	273.2007103210	1.0000000000	0.0000000000	0.0000000000	187.7663963886	1.0000000000	590.7982933206	1.0000000000	0.0000000000	0.0000000000
0.5400000000	-60.1836775890	1.0000000000	372.7053240395	1.0000000000	0.0000000000	0.0000000000	184.5630281903	1.0000000000	528.1764591343	1.0000000000	0.0000000000	0.0000000000
0.5500000000	-92.6616345249	1.0000000000	465.5991387559	1.0000000000	0.0000000000	0.0000000000	175.3947592666	1.0000000000	454.6725745876	1.0000000000	0.0000000000	0.0000000000
0.5600000000	-123.6520729270	1.0000000000	547.6149485394	1.0000000000	0.0000000000	0.0000000000	159.8307259876	1.0000000000	373.9874303327	1.0000000000	0.0000000000	0.0000000000
0.5700000000	-150.2807260497	1.0000000000	617.9902282178	1.0000000000	0.0000000000	0.0000000000	137.7135356410	1.0000000000	291.2059973689	1.0000000000	0.0000000000	0.0000000000
0.5800000000	-171.3030382165	1.0000000000	677.2365279173	1.0000000000	0.0000000000	0.0000000000	110.5423183194	1.0000000000	211.7270233117	1.0000000000	0.0000000000	0.0000000000
0.5900000000	-185.4173665974	1.0000000000	726.6272462949	1.0000000000	0.0000000000	0.0000000000	81.7842934186	1.0000000000	140.9739643278	1.0000000000	0.0000000000	0.0000000000
0.6000000000	-192.5831639305	1.0000000000	767.4767468656	1.0000000000	0.0000000000	0.0000000000	54.5653746199	1.0000000000	83.5656763237	1.0000000000	0.0000000000	0.0000000000
0.6100000000	-193.7091406728	1.0000000000	799.9915794290	1.0000000000	0.0000000000	0.0000000000	31.4550062112	1.0000000000	41.6562489143	1.0000000000	0.0000000000	0.0000000000
0.6200000000	-189.3478658223	1.0000000000	823.3934711670	1.0000000000	0.0000000000	0.0000000000	14.6074796363	1.0000000000	14.6547855885	1.0000000000	0.0000000000	0.0000000000
